<?xml version="1.0" standalone="no"?>
<!DOCTYPE svg PUBLIC "-//W3C//DTD SVG 20010904//EN"
 "http://www.w3.org/TR/2001/REC-SVG-20010904/DTD/svg10.dtd">
<svg version="1.0" xmlns="http://www.w3.org/2000/svg"
 width="619.000000pt" height="619.000000pt" viewBox="0 0 619.000000 619.000000"
 preserveAspectRatio="xMidYMid meet">
<metadata>
Created by potrace 1.14, written by Peter Selinger 2001-2017
</metadata>
<g transform="translate(0.000000,619.000000) scale(0.100000,-0.100000)"
fill="#000000" stroke="none">
<path d="M489 6158 c-3 -84 4 -132 31 -240 18 -70 95 -266 109 -278 4 -3 15
-22 26 -42 70 -135 287 -387 440 -513 26 -22 55 -47 64 -56 9 -8 32 -26 51
-39 19 -13 37 -27 40 -30 3 -4 30 -23 60 -43 30 -20 60 -41 67 -47 6 -5 28
-19 47 -30 20 -10 52 -30 73 -43 21 -12 52 -31 68 -40 30 -17 235 -120 245
-122 3 -1 19 -8 35 -15 17 -7 32 -14 35 -15 3 -1 19 -7 35 -14 95 -39 156 -62
173 -66 10 -1 35 -10 55 -19 21 -8 38 -15 40 -14 3 1 90 -23 117 -33 14 -5 34
-11 45 -13 11 -2 56 -13 100 -24 44 -11 98 -23 120 -28 22 -4 45 -8 50 -10 6
-1 24 -5 40 -8 17 -3 41 -8 55 -11 13 -2 40 -7 60 -10 20 -3 45 -7 57 -9 11
-3 38 -7 59 -11 22 -3 53 -8 69 -11 17 -4 35 -7 42 -7 16 -1 29 -30 52 -114
12 -46 16 -75 10 -79 -9 -5 -148 1 -244 11 -22 3 -75 7 -117 10 -42 3 -92 8
-110 10 -18 2 -58 7 -88 10 -57 6 -117 13 -160 20 -14 2 -45 7 -70 10 -68 9
-100 14 -155 25 -27 5 -61 12 -75 14 -28 5 -130 26 -145 30 -5 1 -37 9 -70 16
-33 8 -62 14 -65 15 -3 1 -23 5 -45 10 -22 4 -47 11 -56 16 -9 4 -28 11 -42
14 -15 3 -38 7 -51 10 -13 3 -40 12 -60 20 -20 8 -36 13 -36 11 0 -3 -46 11
-102 30 -57 20 -110 37 -118 39 -29 6 -335 128 -368 147 -18 10 -39 18 -47 18
-8 0 -15 5 -15 12 0 6 -3 9 -6 6 -6 -7 -97 39 -269 136 -11 6 -34 20 -50 31
-46 30 -69 44 -85 52 -8 4 -19 11 -25 15 -5 4 -24 19 -41 33 -18 14 -35 25
-39 25 -9 0 -79 55 -175 139 -32 28 -35 29 -38 10 -4 -22 31 -134 60 -194 35
-71 109 -174 172 -239 59 -61 206 -176 224 -176 5 0 19 -9 32 -20 28 -24 21
-28 -76 -38 -45 -5 -93 -3 -135 4 -89 17 -91 17 -80 -3 12 -24 69 -82 110
-113 18 -14 39 -31 46 -37 8 -7 16 -13 19 -13 4 0 25 -13 48 -30 22 -16 47
-30 55 -30 7 0 13 -5 13 -10 0 -6 3 -9 8 -8 4 1 36 -12 72 -29 54 -25 141 -58
185 -70 6 -1 48 -14 95 -28 76 -24 242 -67 310 -80 14 -3 36 -7 50 -10 14 -3
39 -7 55 -10 29 -5 52 -10 105 -20 14 -3 43 -8 65 -10 22 -3 51 -7 65 -9 25
-5 60 -10 155 -21 28 -4 61 -8 75 -10 117 -17 1034 -29 1270 -16 l74 4 48 -83
c26 -46 48 -86 48 -91 0 -15 -133 -35 -380 -56 -179 -15 -874 -7 -1025 12 -16
2 -59 7 -95 10 -35 4 -67 8 -70 10 -3 1 -32 5 -65 9 -33 3 -71 8 -85 11 -13 3
-42 7 -65 10 -22 3 -47 8 -55 10 -8 2 -31 6 -50 9 -19 3 -46 8 -60 11 -14 3
-45 10 -70 15 -37 7 -230 57 -290 75 -8 2 -31 8 -50 13 -20 5 -45 14 -58 21
-12 6 -22 10 -22 7 0 -2 -37 9 -81 25 -96 34 -114 36 -100 12 13 -25 101 -114
135 -138 16 -11 34 -25 40 -31 7 -7 31 -21 53 -33 23 -11 45 -25 48 -31 4 -6
11 -8 16 -5 5 4 9 1 9 -4 0 -6 4 -10 8 -9 4 2 28 -7 52 -19 38 -18 65 -29 90
-38 3 -1 12 -4 20 -8 8 -3 40 -13 70 -22 30 -10 59 -21 63 -25 16 -14 -142
-67 -216 -72 -21 -1 -40 -5 -43 -9 -14 -23 207 -123 316 -144 14 -3 36 -7 50
-10 14 -3 48 -10 75 -15 28 -5 66 -12 85 -16 19 -4 213 -8 430 -9 374 -2 433
1 675 30 181 22 415 67 636 122 l185 46 77 -73 c42 -40 77 -76 77 -80 0 -14
-136 -62 -321 -114 -57 -16 -368 -86 -404 -91 -11 -1 -54 -7 -95 -14 -112 -17
-223 -29 -425 -46 -69 -5 -527 -5 -595 0 -30 3 -70 7 -87 10 -18 3 -57 7 -85
11 l-53 5 33 -20 c18 -12 36 -21 41 -21 5 0 11 -4 13 -8 7 -19 164 -84 233
-97 39 -8 216 -18 327 -19 49 -1 88 -5 88 -9 0 -15 -104 -109 -142 -128 -20
-10 -39 -23 -42 -28 -6 -9 9 -24 29 -27 73 -13 122 -16 245 -16 80 1 159 3
175 6 96 15 122 19 140 22 83 10 347 81 540 144 83 27 193 61 245 75 163 45
344 44 479 -1 64 -22 171 -75 171 -85 0 -5 5 -9 10 -9 16 0 88 -69 135 -130
52 -68 87 -136 120 -234 23 -68 25 -91 25 -233 1 -87 -2 -170 -5 -184 -8 -44
-43 -146 -60 -178 -8 -17 -13 -31 -10 -31 2 0 -8 -24 -24 -52 -16 -29 -37 -69
-47 -88 -11 -19 -22 -36 -26 -38 -5 -2 -8 -8 -8 -14 0 -5 -6 -15 -12 -23 -7
-7 -22 -25 -33 -41 -27 -37 -108 -120 -169 -171 -46 -39 -47 -42 -28 -52 26
-14 140 -38 169 -36 19 1 21 -3 21 -49 -2 -178 53 -326 164 -438 33 -35 63
-58 65 -52 2 6 -5 31 -16 56 -14 34 -18 63 -16 129 3 94 8 122 21 126 5 1 42
-73 83 -165 143 -321 320 -736 316 -740 -2 -3 -232 -5 -509 -6 l-505 -2 -27
51 c-79 146 -170 247 -244 269 -78 23 -118 8 -205 -73 l-48 -45 -143 149 c-79
81 -141 152 -138 156 3 5 13 9 23 9 21 0 153 39 236 70 112 42 231 132 313
236 12 15 22 34 22 41 0 7 5 13 11 13 5 0 7 5 4 10 -3 6 -1 10 5 10 6 0 8 5 5
10 -3 6 -1 10 4 10 6 0 10 3 10 8 -1 4 0 10 1 15 1 4 4 12 5 17 1 6 3 11 5 13
6 8 12 53 17 127 4 74 1 103 -18 180 -11 43 -54 59 -166 61 -126 3 -217 -22
-328 -91 -52 -32 -135 -118 -135 -140 0 -6 -3 -10 -8 -10 -4 0 -12 -9 -17 -19
-75 -147 -90 -176 -97 -179 -5 -2 -6 -8 -2 -13 3 -5 0 -9 -5 -9 -6 0 -11 -6
-11 -13 0 -21 -76 -125 -128 -175 -63 -61 -142 -125 -207 -167 -30 -19 -55
-37 -55 -39 0 -2 12 -17 28 -33 32 -35 160 -178 182 -203 8 -10 34 -40 56 -66
69 -80 84 -98 113 -129 47 -51 48 -51 -77 -49 -64 1 -122 3 -129 3 -6 1 -26
27 -44 59 -80 140 -170 238 -242 261 -67 23 -131 1 -206 -68 -24 -23 -46 -41
-47 -41 -5 0 -65 62 -139 145 -38 42 -85 93 -102 111 -18 19 -33 36 -33 38 0
2 44 11 98 21 216 39 448 139 565 244 54 48 129 130 154 168 32 46 91 150 97
171 4 12 11 22 15 22 4 0 13 16 21 35 8 19 17 35 22 35 4 0 8 7 8 15 0 8 4 15
8 15 5 0 14 10 20 22 20 44 61 89 146 162 36 30 172 98 246 122 42 14 87 18
190 18 153 0 217 -9 300 -41 8 -4 17 -7 20 -8 25 -9 47 -20 60 -31 8 -7 17
-12 20 -12 3 1 24 -11 47 -25 24 -15 45 -27 47 -27 10 0 96 89 96 99 0 6 5 11
10 11 6 0 10 7 10 15 0 8 5 15 10 15 6 0 10 7 10 15 0 8 5 15 11 15 5 0 7 5 4
10 -3 6 -3 10 2 10 9 0 24 32 56 114 33 89 41 140 41 266 0 190 -33 281 -138
385 -68 67 -116 100 -176 120 -3 1 -12 4 -20 7 -52 20 -86 26 -175 27 -122 2
-193 -12 -413 -83 -93 -30 -249 -78 -348 -106 -307 -88 -403 -121 -519 -179
-206 -105 -389 -256 -545 -451 -19 -24 -41 -49 -47 -56 -7 -7 -13 -15 -13 -18
0 -3 -8 -14 -17 -25 -10 -10 -34 -42 -53 -71 -19 -28 -40 -57 -46 -63 -6 -7
-32 -46 -59 -87 -27 -41 -52 -77 -55 -80 -14 -13 -50 -70 -50 -80 0 -5 -4 -10
-10 -10 -5 0 -10 -5 -10 -10 0 -6 -5 -16 -10 -23 -25 -29 -46 -57 -60 -78 -31
-47 -137 -147 -197 -186 -120 -79 -279 -112 -407 -86 -66 14 -146 45 -174 68
-167 136 -242 344 -195 546 14 65 57 163 80 187 7 7 13 17 13 21 0 14 88 100
140 135 71 49 167 77 310 91 200 20 283 45 385 115 75 52 194 178 195 207 0 6
3 13 8 15 4 2 18 26 31 53 36 77 44 99 57 157 8 36 16 188 11 188 -3 0 -12 -6
-19 -12 -90 -86 -213 -118 -348 -92 -67 12 -96 15 -192 18 -158 4 -278 -44
-387 -156 -56 -57 -71 -75 -71 -84 0 -4 -6 -15 -14 -23 -18 -20 -54 -111 -61
-154 -12 -73 -17 -83 -58 -112 -43 -30 -88 -67 -116 -96 -41 -41 -81 -89 -81
-99 0 -5 -4 -10 -10 -10 -5 0 -10 -7 -10 -15 0 -8 -5 -15 -11 -15 -5 0 -7 -4
-4 -10 3 -5 3 -10 -2 -10 -6 0 -53 -88 -58 -110 -1 -3 -7 -18 -14 -35 -49
-118 -62 -345 -27 -475 43 -157 143 -314 255 -400 18 -14 46 -36 62 -48 16
-13 29 -20 29 -15 0 4 4 3 8 -3 13 -19 135 -71 213 -91 53 -13 265 -12 329 2
149 32 317 121 430 229 53 51 110 113 110 121 0 10 34 44 41 40 7 -5 -16 -130
-28 -149 -4 -6 -8 -13 -8 -16 -2 -14 -42 -88 -57 -104 -10 -11 -18 -25 -18
-30 0 -6 -40 -50 -90 -97 -49 -48 -90 -91 -90 -97 0 -8 72 -106 90 -122 3 -3
21 -25 40 -50 19 -25 43 -54 52 -65 60 -72 168 -211 168 -217 0 -9 27 -9 -439
-14 l-374 -3 -25 -31 c-14 -17 -27 -41 -29 -52 -3 -20 16 -59 43 -86 10 -9
545 -12 2607 -12 l2594 0 26 30 c20 22 27 41 27 69 0 35 -18 70 -38 72 -4 0
-16 3 -27 5 -11 3 -103 6 -205 8 l-185 2 -24 45 c-49 92 -82 139 -140 204 -41
45 -96 77 -138 80 -29 2 -124 -22 -133 -34 -11 -15 -94 -70 -98 -66 -5 5 -6
646 -2 930 3 184 3 184 73 260 10 11 32 42 50 70 17 27 34 52 38 55 12 9 74
134 93 185 10 28 20 57 23 65 8 21 11 31 17 60 3 14 8 35 11 48 3 12 7 32 10
44 23 106 21 354 -5 483 -5 28 -12 65 -15 83 -12 76 -89 283 -141 380 -54 103
-189 309 -224 342 -16 15 -183 246 -225 310 -64 98 -129 238 -151 325 -24 95
-28 322 -8 396 16 58 54 142 66 147 5 2 8 8 8 13 0 12 25 42 80 97 49 48 145
99 206 109 35 6 37 5 24 -9 -8 -8 -28 -32 -45 -53 -16 -21 -36 -44 -42 -51 -7
-7 -13 -15 -13 -19 0 -3 -9 -18 -21 -34 -11 -15 -22 -34 -23 -42 -2 -8 -6 -21
-9 -29 -45 -112 -47 -342 -3 -473 31 -91 83 -199 137 -280 64 -96 133 -192
141 -195 5 -2 8 -8 8 -13 0 -5 6 -17 14 -26 118 -145 280 -407 346 -561 102
-237 132 -463 106 -806 l-4 -50 33 38 c17 20 47 67 65 104 18 37 39 79 47 94
8 16 12 28 9 28 -3 0 1 15 9 33 7 18 16 53 20 77 3 25 9 59 12 75 12 67 10
260 -4 332 -17 89 -53 193 -99 284 -24 48 -29 66 -18 66 8 0 14 -4 14 -9 0 -5
4 -6 10 -3 5 3 10 2 10 -4 0 -5 10 -13 23 -16 12 -4 58 -43 101 -88 l79 -82
-7 76 c-12 135 -63 271 -149 399 -42 63 -73 97 -276 305 -80 83 -159 169 -175
192 -36 53 -76 163 -76 209 0 41 19 124 29 124 4 0 15 13 24 30 11 18 42 41
81 60 147 73 315 21 329 -100 2 -19 0 -45 -4 -57 -6 -17 -5 -23 6 -23 34 0
155 93 155 119 0 6 4 11 8 11 7 0 28 47 40 90 2 8 4 53 4 100 1 159 -61 234
-240 290 -33 10 -54 28 -96 80 -94 116 -173 184 -207 176 -3 0 -13 5 -21 12
-9 7 -24 15 -34 17 -11 2 -57 16 -104 30 -47 14 -94 28 -105 30 -11 3 -54 14
-95 25 -41 11 -84 22 -95 25 -18 4 -65 16 -117 30 -10 3 -26 7 -35 9 -10 2
-72 18 -138 36 -117 30 -134 35 -175 45 -23 6 -27 7 -135 36 -44 11 -84 22
-90 23 -5 2 -30 8 -55 15 -25 8 -52 15 -60 16 -8 2 -16 4 -17 5 -2 2 -7 4 -13
5 -5 1 -12 4 -15 5 -3 1 -8 3 -12 4 -13 2 -135 67 -150 79 -8 7 -24 21 -35 31
-21 19 -21 19 -14 -15 15 -75 70 -162 157 -249 96 -95 114 -110 128 -110 5 0
11 -4 13 -8 2 -5 34 -27 72 -49 75 -45 75 -45 -24 -57 -136 -17 -317 -101
-418 -195 -40 -37 -38 -38 93 -44 99 -5 134 -10 175 -25 20 -8 19 -10 -22 -43
-64 -51 -158 -152 -158 -170 0 -5 -4 -9 -8 -9 -11 0 -67 -112 -87 -173 -8 -26
-15 -72 -15 -103 l0 -55 41 41 c68 67 229 167 250 155 4 -3 -10 -40 -31 -83
-21 -42 -41 -90 -44 -107 -16 -77 -22 -119 -30 -200 -3 -27 -8 -79 -11 -115
-4 -36 -8 -79 -10 -97 -2 -26 4 -38 39 -70 22 -21 59 -51 81 -68 22 -16 45
-33 50 -37 6 -5 28 -22 50 -38 22 -16 45 -33 50 -38 6 -4 26 -19 45 -32 19
-13 40 -29 46 -35 7 -5 24 -19 40 -30 15 -11 44 -33 64 -50 20 -16 56 -46 81
-65 86 -69 202 -195 261 -285 97 -150 166 -359 172 -529 5 -120 -6 -138 -32
-51 -60 198 -201 410 -367 552 -91 77 -98 83 -104 83 -3 0 -19 11 -35 25 -16
14 -32 25 -36 25 -4 0 -20 11 -36 25 -16 14 -35 25 -41 25 -7 0 -13 5 -13 10
0 6 -7 10 -15 10 -8 0 -15 4 -15 9 0 5 -9 13 -20 16 -11 3 -26 12 -32 18 -7 7
-38 28 -68 47 -30 19 -56 38 -58 42 -2 5 -10 8 -18 8 -8 0 -14 4 -14 8 0 4
-14 16 -32 27 -49 29 -200 182 -251 255 -96 138 -173 323 -195 470 -12 80 -6
350 8 368 2 1 3 5 4 10 1 4 8 29 15 55 15 53 10 65 -32 72 -14 3 -46 14 -71
25 -26 11 -47 19 -49 19 -1 0 -15 5 -32 11 -16 7 -34 13 -40 14 -5 2 -23 8
-40 15 -16 6 -55 21 -85 32 -30 12 -64 25 -75 29 -19 8 -55 21 -65 25 -3 1
-18 7 -33 13 -16 7 -31 12 -35 12 -4 1 -25 9 -47 20 -22 11 -47 19 -55 20 -8
0 -31 8 -50 19 -19 10 -39 19 -45 21 -25 6 -293 109 -345 132 -25 11 -49 21
-55 23 -5 1 -23 8 -40 14 -26 11 -71 28 -165 63 -14 5 -26 9 -28 9 -1 -1 -19
8 -39 19 -21 11 -42 20 -47 20 -13 0 -182 67 -218 86 -15 8 -30 15 -33 14 -3
0 -7 1 -10 1 -3 1 -8 2 -12 3 -5 1 -25 10 -47 19 -21 9 -41 17 -43 17 -3 0
-19 6 -36 14 -32 14 -68 28 -77 31 -3 0 -27 11 -55 24 -27 12 -57 24 -66 26
-9 2 -25 8 -35 14 -11 6 -41 20 -69 32 -95 41 -120 52 -195 87 -41 20 -78 35
-82 34 -5 -1 -8 2 -8 8 0 6 -3 9 -7 8 -5 -1 -19 4 -33 12 -84 47 -149 82 -172
91 -16 6 -28 15 -28 20 0 5 -5 9 -11 9 -12 0 -132 81 -137 93 -2 4 -8 7 -13 7
-5 0 -18 8 -28 18 -11 9 -40 35 -66 57 -26 22 -67 59 -91 83 l-44 43 -1 -33z
m4707 -1154 c16 -3 47 -10 69 -16 22 -6 46 -12 52 -14 7 -1 20 -9 28 -18 9 -8
21 -19 28 -23 24 -16 80 -83 75 -89 -4 -3 -44 -8 -91 -11 -67 -4 -92 -1 -121
12 -36 17 -102 86 -140 147 l-20 31 46 -7 c24 -4 58 -9 74 -12z m-1579 -2702
c53 -15 133 -53 133 -64 0 -4 5 -8 10 -8 41 0 163 -201 142 -234 -3 -6 -7 -5
-10 2 -2 7 -8 12 -13 12 -4 0 -32 11 -61 24 -113 51 -155 60 -303 60 -219 1
-301 -11 -480 -74 -91 -32 -176 -72 -207 -98 -15 -12 -16 -12 -11 7 3 12 9 21
13 21 5 0 11 9 15 19 9 29 145 163 217 214 73 52 135 82 233 112 56 17 91 22
175 20 58 -1 124 -7 147 -13z m1478 -199 c-3 -77 -12 -173 -21 -216 -2 -12 -7
-38 -10 -57 -7 -35 -10 -51 -19 -92 -17 -77 -95 -274 -115 -288 -4 -3 -14 -18
-23 -35 -19 -36 -96 -125 -108 -125 -8 0 -5 135 6 230 13 119 18 150 38 210
12 36 22 67 23 70 0 3 8 22 17 42 10 21 17 42 17 48 0 5 3 10 8 10 4 0 13 15
21 33 8 17 21 40 29 50 8 9 12 17 8 17 -4 0 -2 6 3 13 46 56 61 76 61 86 0 6
3 11 8 11 4 0 18 16 31 35 13 19 25 35 26 35 2 0 2 -35 0 -77z"/>
<path d="M239 5909 c-50 -59 -93 -149 -108 -224 -31 -155 22 -301 166 -460 26
-29 115 -107 148 -130 15 -11 34 -26 41 -32 7 -7 15 -13 19 -13 3 0 11 -5 18
-10 28 -24 103 -70 114 -70 6 0 13 -3 15 -7 2 -5 44 -28 93 -52 50 -24 98 -47
108 -52 26 -14 119 -50 137 -54 8 -2 28 -8 44 -14 45 -18 99 -25 91 -12 -3 6
-12 11 -20 11 -7 0 -15 3 -17 8 -1 4 -37 33 -79 65 -115 86 -304 276 -394 395
-5 7 -15 18 -21 26 -7 7 -42 57 -78 112 -100 148 -172 299 -205 432 -15 62
-30 114 -33 117 -2 3 -20 -13 -39 -36z"/>
<path d="M191 179 c-54 -5 -69 -11 -88 -33 -29 -34 -29 -69 -2 -112 l21 -34
222 0 c222 0 223 0 245 24 13 13 26 40 31 60 7 33 5 40 -22 66 -19 20 -40 30
-61 31 -114 4 -292 3 -346 -2z"/>
</g>
</svg>
