<svg version="1.0" xmlns="http://www.w3.org/2000/svg"
 width="36" height="36" viewBox="210.15 191.6 603.86 619.5"
 preserveAspectRatio="xMidYMid meet">
<title>Gilded Gryphon logo</title>
<g transform="translate(0,1024) scale(0.100000,-0.100000)"
fill="var(--gray-12)" stroke="none">
<path d="M2510 8248 c0 -216 131 -514 332 -753 254 -303 585 -545 990 -726
305 -136 628 -228 1017 -289 101 -16 186 -32 189 -35 5 -4 51 -171 52 -186 0
-13 -394 16 -680 52 -565 70 -1210 257 -1645 479 -233 118 -475 276 -595 386
-56 53 -60 55 -60 31 0 -47 49 -181 93 -254 90 -151 204 -264 356 -354 l74
-44 -49 -12 c-70 -16 -161 -15 -228 2 -33 9 -60 14 -62 12 -2 -2 21 -31 52
-65 59 -66 175 -148 290 -206 196 -97 586 -201 959 -255 330 -47 460 -55 920
-56 242 0 492 3 556 7 l116 8 33 -63 c18 -34 42 -75 53 -90 10 -16 18 -30 16
-31 -7 -7 -234 -36 -349 -46 -332 -27 -815 -21 -1128 16 -451 52 -730 116
-1144 260 -32 11 -19 -14 39 -76 105 -114 256 -203 461 -270 l113 -37 -58 -26
c-67 -30 -132 -46 -185 -47 -21 0 -38 -4 -38 -8 0 -12 98 -68 168 -97 77 -31
189 -58 342 -82 95 -15 179 -18 475 -18 225 0 405 5 480 13 317 34 618 88 868
157 l122 33 83 -75 c46 -42 79 -79 75 -84 -14 -14 -142 -58 -287 -99 -163 -46
-429 -102 -596 -125 -393 -53 -870 -60 -1125 -15 -27 4 -51 7 -53 5 -6 -6 136
-86 190 -107 113 -44 151 -50 352 -56 l199 -7 -49 -51 c-27 -29 -75 -66 -108
-84 -40 -23 -54 -35 -45 -41 52 -28 307 -39 469 -19 181 23 431 84 672 166
296 100 425 124 573 106 292 -36 496 -211 587 -502 20 -66 23 -94 22 -235 0
-144 -3 -169 -28 -250 -68 -225 -208 -439 -362 -552 -45 -34 -59 -50 -50 -55
22 -12 138 -38 173 -38 l31 0 1 -83 c1 -98 20 -177 65 -272 32 -68 108 -159
153 -184 l22 -11 -21 47 c-12 26 -23 78 -26 114 -5 70 13 172 30 167 8 -3 398
-897 398 -913 0 -3 -229 -5 -509 -5 l-510 0 -36 69 c-42 79 -125 183 -179 225
-45 34 -107 44 -161 26 -20 -7 -61 -37 -91 -67 l-55 -54 -142 146 c-78 81
-143 151 -145 156 -2 4 14 11 35 14 62 10 234 65 288 93 192 96 322 262 344
437 15 123 -12 259 -54 275 -44 17 -188 22 -255 10 -79 -14 -190 -66 -248
-115 -59 -51 -121 -141 -184 -271 -30 -60 -70 -132 -88 -160 -54 -78 -157
-174 -255 -239 -49 -32 -92 -60 -94 -62 -3 -2 18 -27 45 -56 28 -28 115 -126
194 -217 79 -91 152 -175 163 -188 l20 -22 -129 0 -129 1 -49 85 c-55 94 -138
191 -191 224 -43 27 -119 29 -167 5 -18 -10 -54 -37 -79 -61 l-45 -45 -135
146 c-74 81 -135 149 -137 153 -1 4 39 13 90 20 156 21 374 103 499 188 72 49
171 145 224 219 23 33 70 113 105 178 110 207 198 302 355 376 124 59 192 75
330 75 170 0 302 -36 420 -113 59 -39 59 -39 83 -20 83 64 177 227 212 364 25
96 27 257 5 353 -37 161 -164 296 -332 353 -56 19 -89 23 -183 23 -130 0 -184
-12 -427 -95 -82 -27 -254 -79 -383 -114 -242 -66 -368 -111 -479 -171 -296
-162 -492 -364 -791 -814 -146 -220 -214 -306 -295 -372 -186 -152 -435 -182
-617 -75 -67 39 -145 128 -183 209 -119 251 -28 558 210 707 73 46 160 69 304
81 148 12 216 28 304 70 132 65 242 180 312 325 46 95 65 174 65 269 l0 80
-37 -36 c-87 -83 -194 -105 -363 -74 -246 46 -413 2 -553 -143 -86 -89 -147
-215 -147 -305 0 -25 -9 -37 -43 -60 -135 -95 -215 -188 -283 -331 -51 -108
-72 -183 -80 -296 -27 -368 192 -690 546 -800 106 -34 299 -34 415 -1 102 30
228 91 307 151 69 53 176 162 204 210 25 43 35 39 28 -11 -22 -157 -114 -308
-254 -414 -33 -26 -47 -42 -41 -51 4 -7 48 -64 98 -126 154 -190 263 -328 263
-332 0 -2 -185 -6 -411 -7 l-411 -3 -29 -33 c-37 -41 -37 -73 0 -114 l29 -33
2592 -3 2592 -2 34 34 c36 36 43 70 23 108 -21 40 -66 48 -267 48 l-189 0 -36
73 c-46 92 -133 198 -192 233 -78 45 -163 26 -272 -62 l-33 -27 0 560 c0 510
1 562 17 574 9 8 47 54 85 104 224 288 289 669 187 1086 -63 260 -160 440
-403 753 -195 250 -281 397 -326 556 -30 105 -38 309 -16 404 29 124 112 248
211 316 45 31 171 77 182 67 3 -4 -19 -33 -48 -65 -104 -112 -149 -239 -149
-415 0 -225 71 -389 301 -699 316 -425 428 -647 481 -953 17 -102 19 -144 14
-285 -3 -91 -8 -181 -11 -200 l-6 -35 36 40 c50 55 120 202 145 305 26 108 37
309 21 410 -19 123 -45 193 -139 383 -2 5 19 -3 48 -18 63 -32 129 -91 170
-153 33 -51 33 -51 30 33 -3 121 -54 262 -144 400 -43 65 -106 136 -245 274
-128 127 -199 205 -223 246 -95 164 -90 290 13 378 102 88 289 89 357 2 27
-35 37 -86 24 -125 -14 -39 -3 -39 64 0 96 55 154 162 154 285 0 161 -77 257
-237 295 -48 11 -57 18 -103 79 -27 37 -72 89 -100 115 -82 77 -132 94 -705
241 -397 102 -675 176 -714 190 -54 19 -141 68 -183 103 l-31 27 7 -30 c36
-148 165 -296 360 -412 l86 -51 -66 -7 c-130 -14 -261 -62 -374 -138 -47 -31
-110 -87 -110 -96 0 -4 46 -6 103 -6 70 0 121 -6 162 -19 l60 -18 -35 -27
c-167 -125 -280 -313 -280 -465 l0 -51 65 61 c62 60 187 134 226 134 15 0 12
-8 -17 -57 -54 -91 -73 -168 -90 -368 -8 -99 -17 -187 -20 -196 -6 -20 50 -69
221 -194 397 -291 502 -389 619 -584 102 -169 171 -468 137 -591 -6 -21 -10
-13 -24 45 -35 142 -148 339 -272 473 -93 100 -210 190 -430 330 -214 136
-324 225 -413 337 -113 139 -180 275 -224 452 -18 72 -22 116 -22 243 0 137 3
165 26 238 l25 83 -24 10 c-13 5 -26 9 -29 9 -16 0 -670 250 -1189 455 -148
58 -337 132 -420 164 -811 315 -1138 486 -1382 725 l-63 60 0 -76z m4690
-1107 c132 -21 164 -36 225 -104 l57 -62 -94 -9 c-124 -11 -151 2 -237 114
-54 69 -59 80 -39 76 12 -3 52 -10 88 -15z m-1537 -2712 c76 -26 122 -55 175
-113 44 -48 75 -105 86 -162 l7 -30 -86 42 c-46 23 -113 47 -147 54 -88 17
-314 15 -423 -5 -120 -21 -282 -76 -373 -127 l-75 -41 19 32 c34 59 174 199
246 247 184 123 398 161 571 103z m1442 -344 c-30 -234 -85 -404 -176 -539
-46 -68 -105 -134 -113 -125 -11 13 15 332 33 399 38 142 110 288 203 411 l63
84 3 -50 c2 -27 -4 -108 -13 -180z"/>
<path d="M2261 8044 c-86 -98 -129 -226 -118 -348 21 -226 243 -460 617 -650
112 -57 299 -130 365 -141 39 -7 37 -5 -46 53 -303 214 -622 617 -724 917 -9
28 -25 88 -34 134 l-18 83 -42 -48z"/>
<path d="M2155 2306 c-56 -24 -71 -96 -31 -143 l24 -28 215 -3 214 -3 31 26
c58 48 47 131 -19 154 -47 16 -395 14 -434 -3z"/>
</g>
</svg>
